# xmcd CD database file
#
# Track frame offsets:
#	150
#	12117
#	30782
#	48835
#	69112
#	86607
#	106482
#	128612
#	144625
#	163940
#	183982
#	203937
#	223837
#	243795
#	257970
#	284112
#	304050
#	315067
#
# Disc length: 4498 seconds
#
# Revision: 15
# Processed by: cddbd v1.5.2PL0 Copyright (c) Steve Scherf et al.
# Submitted via: CDex 1.70beta2
#
DISCID=f4119012
DTITLE=Willie Nelson - Stars and Guitars
DYEAR=2002
DGENRE=Country
TTITLE0=Whiskey River (w. Sheryl Crow)
TTITLE1=Good Hearted Woman (w. Toby Keith)
TTITLE2=Maria (Shut Up And Kiss Me) (w. Rob Thomas and Bill Evans)
TTITLE3=Mendocino County Line (w.Lee Ann Womack)
TTITLE4=Always On My Mind (w. Jon Bon Jovi and Richie Sambora)
TTITLE5=Night Life (w. Ray Price)
TTITLE6=Dead Flowers (w. Ryan Adams, Hank Williams III and Keith Richards)
TTITLE7=Lonestar (w. Norah Jones)
TTITLE8=Stardust (w. Aaron Neville)
TTITLE9=Don't Fade Away (w. Brian McKnight and Bill Evans)
TTITLE10=Angel Flying Too Close To The Ground (w. Patty Griffin)
TTITLE11=For What It's Worth (w. Sheryl Crow and Bill Evans)
TTITLE12=Mammas Don't Let Your Babies Grow Up to Be Cowboys (w. Matchbox Twenty)
TTITLE13=Blue Eyes Crying In The Rain (w. Vince Gil)
TTITLE14=Till I Gain Control Again (w. Emmylou Harris)
TTITLE15=The Harder They Come (w. Ryan Adams)
TTITLE16=On The Road Again (& Familiy)
TTITLE17=Move It On Over (& Familiy)
EXTD=YEAR: 2002
EXTT0=
EXTT1=
EXTT2=
EXTT3=
EXTT4=
EXTT5=
EXTT6=
EXTT7=
EXTT8=
EXTT9=
EXTT10=
EXTT11=
EXTT12=
EXTT13=
EXTT14=
EXTT15=
EXTT16=
EXTT17=
PLAYORDER=
